<?xml version="1.0" encoding="UTF-8" standalone="no"?>
<!DOCTYPE svg PUBLIC "-//W3C//DTD SVG 1.1//EN" "http://www.w3.org/Graphics/SVG/1.1/DTD/svg11.dtd">
<!-- Generiert durch Microsoft Visio, SVG Export ACO.svg Zeichenblatt-1 -->
<svg xmlns="http://www.w3.org/2000/svg" xmlns:xlink="http://www.w3.org/1999/xlink" xmlns:ev="http://www.w3.org/2001/xml-events"
		width="10.1164in" height="9.38615in" viewBox="0 0 728.377 675.803" xml:space="preserve" color-interpolation-filters="sRGB"
		class="st13">
	<style type="text/css">
	<![CDATA[
		.st1 {fill:#f2f2f2;stroke:#000000;stroke-linecap:round;stroke-linejoin:round;stroke-width:0.75}
		.st2 {fill:#ffffff;stroke:#000000;stroke-linecap:round;stroke-linejoin:round;stroke-width:0.75}
		.st3 {fill:#000000;font-family:Calibri;font-size:1.00001em}
		.st4 {fill:#ffffff;fill-opacity:0}
		.st5 {stroke:#000000;stroke-linecap:round;stroke-linejoin:round;stroke-width:0.75;visibility:hidden}
		.st6 {fill:#000000;font-family:Calibri;font-size:0.833336em}
		.st7 {marker-end:url(#mrkr12-133);stroke:#000000;stroke-linecap:round;stroke-linejoin:round;stroke-width:0.75}
		.st8 {fill:#000000;fill-opacity:1;stroke:#000000;stroke-opacity:1;stroke-width:0.22935779816514}
		.st9 {fill:#ffffff;stroke:none;stroke-linecap:butt;stroke-width:7.2}
		.st10 {fill:#000000;font-family:Calibri;font-size:0.75em}
		.st11 {fill:#ffffff;stroke:none;stroke-linecap:butt}
		.st12 {marker-start:url(#mrkr22-290);stroke:#000000;stroke-linecap:round;stroke-linejoin:round;stroke-width:0.75}
		.st13 {fill:none;fill-rule:evenodd;font-size:12px;overflow:visible;stroke-linecap:square;stroke-miterlimit:3}
	]]>
	</style>

	<defs id="Markers">
		<g id="lend12">
			<path d="M 3 1 L 0 0 L 3 -1 " style="stroke-linecap:round;stroke-linejoin:round;fill:none"/>
		</g>
		<marker id="mrkr12-133" class="st8" orient="auto" markerUnits="strokeWidth" overflow="visible">
			<use xlink:href="#lend12" transform="scale(-4.36,-4.36) "/>
		</marker>
		<g id="lend22">
			<path d="M 0 0 L 2.25 -1.125 L 4.5 0 L 2.25 1.125 L 0 0 " style="stroke-linecap:round;stroke-linejoin:round;fill:none"/>
		</g>
		<marker id="mrkr22-290" class="st8" refX="19.14" orient="auto" markerUnits="strokeWidth" overflow="visible">
			<use xlink:href="#lend22" transform="scale(4.36) "/>
		</marker>
	</defs>
	<g>
		<title>Zeichenblatt-1</title>
		<g id="group2936-1" transform="translate(359.499,-614.855)">
			<title>Klasse.2936</title>
			<desc>Algorithm</desc>
			<g id="shape2937-2">
				<title>Tabelle.2937</title>
				<path d="M0 675.8 L122.97 675.8 L122.97 658.13 L0 658.13 L0 675.8 Z" class="st1"/>
			</g>
			<g id="shape2938-4" transform="translate(0,-17.6693)">
				<title>Tabelle.2938</title>
				<path d="M0 675.8 L122.97 675.8 L122.97 632.9 L0 632.9 L0 675.8 Z" class="st2"/>
			</g>
			<g id="shape2940-6" transform="translate(114.467,-60.573)">
				<title>Tabelle.2940</title>
				<desc>Parameter</desc>
			</g>
			<g id="shape2936-7">
				<text x="4" y="646.03" class="st3">Algorithm</text>			</g>
		</g>
		<g id="shape2941-9" transform="translate(362.333,-617.69)">
			<title>Mitglied.2941</title>
			<rect x="0" y="663.803" width="117.302" height="12" class="st4"/>
			<rect x="0" y="663.803" width="117.302" height="12" class="st5"/>
		</g>
		<g id="group2942-12" transform="translate(137.855,-376.691)">
			<title>Klasse.2942</title>
			<desc>Ant</desc>
			<g id="shape2943-13">
				<title>Tabelle.2943</title>
				<path d="M0 675.8 L122.97 675.8 L122.97 658.13 L0 658.13 L0 675.8 Z" class="st1"/>
			</g>
			<g id="shape2944-15" transform="translate(0,-17.6693)">
				<title>Tabelle.2944</title>
				<path d="M0 675.8 L122.97 675.8 L122.97 632.9 L0 632.9 L0 675.8 Z" class="st2"/>
			</g>
			<g id="shape2946-17" transform="translate(114.467,-60.573)">
				<title>Tabelle.2946</title>
				<desc>Parameter</desc>
			</g>
			<g id="shape2942-18">
				<text x="4" y="646.03" class="st3">Ant</text>			</g>
		</g>
		<g id="shape2947-20" transform="translate(140.69,-379.525)">
			<title>Mitglied.2947</title>
			<rect x="0" y="663.803" width="117.302" height="12" class="st4"/>
			<rect x="0" y="663.803" width="117.302" height="12" class="st5"/>
		</g>
		<g id="group2948-23" transform="translate(359.499,-525.423)">
			<title>Klasse.2948</title>
			<desc>MasterProcess</desc>
			<g id="shape2949-24">
				<title>Tabelle.2949</title>
				<path d="M0 675.8 L122.97 675.8 L122.97 658.13 L0 658.13 L0 675.8 Z" class="st1"/>
			</g>
			<g id="shape2950-26" transform="translate(0,-17.6693)">
				<title>Tabelle.2950</title>
				<path d="M0 675.8 L122.97 675.8 L122.97 632.9 L0 632.9 L0 675.8 Z" class="st2"/>
			</g>
			<g id="shape2951-28" transform="translate(0,-44.573)">
				<title>Tabelle.2951</title>
				<desc>&#60;&#60;abstract&#62;&#62;</desc>
				<text x="4" y="672.8" class="st6">&#60;&#60;abstract&#62;&#62;</text>			</g>
			<g id="shape2952-30" transform="translate(114.467,-60.5766)">
				<title>Tabelle.2952</title>
				<desc>Parameter</desc>
			</g>
			<g id="shape2948-31">
				<text x="4" y="646.03" class="st3">MasterProcess</text>			</g>
		</g>
		<g id="shape2953-33" transform="translate(362.333,-528.258)">
			<title>Mitglied.2953</title>
			<rect x="0" y="663.803" width="117.302" height="12" class="st4"/>
			<rect x="0" y="663.803" width="117.302" height="12" class="st5"/>
		</g>
		<g id="group2954-36" transform="translate(137.855,-265.827)">
			<title>Klasse.2954</title>
			<desc>ConstructionStrategy</desc>
			<g id="shape2955-37">
				<title>Tabelle.2955</title>
				<path d="M0 675.8 L122.97 675.8 L122.97 658.13 L0 658.13 L0 675.8 Z" class="st1"/>
			</g>
			<g id="shape2956-39" transform="translate(0,-17.6693)">
				<title>Tabelle.2956</title>
				<path d="M0 675.8 L122.97 675.8 L122.97 632.9 L0 632.9 L0 675.8 Z" class="st2"/>
			</g>
			<g id="shape2957-41" transform="translate(0,-44.573)">
				<title>Tabelle.2957</title>
				<desc>&#60;&#60;abstract&#62;&#62;</desc>
				<text x="4" y="672.8" class="st6">&#60;&#60;abstract&#62;&#62;</text>			</g>
			<g id="shape2958-43" transform="translate(114.467,-60.5766)">
				<title>Tabelle.2958</title>
				<desc>Parameter</desc>
			</g>
			<g id="shape2954-44">
				<text x="4" y="646.03" class="st3">ConstructionStrategy</text>			</g>
		</g>
		<g id="shape2959-46" transform="translate(140.69,-268.662)">
			<title>Mitglied.2959</title>
			<rect x="0" y="663.803" width="117.302" height="12" class="st4"/>
			<rect x="0" y="663.803" width="117.302" height="12" class="st5"/>
		</g>
		<g id="group2960-49" transform="translate(0.375,-265.827)">
			<title>Klasse.2960</title>
			<desc>LocalSearch</desc>
			<g id="shape2961-50">
				<title>Tabelle.2961</title>
				<path d="M0 675.8 L122.97 675.8 L122.97 658.13 L0 658.13 L0 675.8 Z" class="st1"/>
			</g>
			<g id="shape2962-52" transform="translate(0,-17.6693)">
				<title>Tabelle.2962</title>
				<path d="M0 675.8 L122.97 675.8 L122.97 632.9 L0 632.9 L0 675.8 Z" class="st2"/>
			</g>
			<g id="shape2963-54" transform="translate(0,-44.573)">
				<title>Tabelle.2963</title>
				<desc>&#60;&#60;abstract&#62;&#62;</desc>
				<text x="4" y="672.8" class="st6">&#60;&#60;abstract&#62;&#62;</text>			</g>
			<g id="shape2964-56" transform="translate(114.467,-60.5766)">
				<title>Tabelle.2964</title>
				<desc>Parameter</desc>
			</g>
			<g id="shape2960-57">
				<text x="4" y="646.03" class="st3">LocalSearch</text>			</g>
		</g>
		<g id="shape2965-59" transform="translate(3.20965,-268.662)">
			<title>Mitglied.2965</title>
			<rect x="0" y="663.803" width="117.302" height="12" class="st4"/>
			<rect x="0" y="663.803" width="117.302" height="12" class="st5"/>
		</g>
		<g id="group2966-62" transform="translate(276.753,-265.827)">
			<title>Klasse.2966</title>
			<desc>PeromonUpdateRule</desc>
			<g id="shape2967-63">
				<title>Tabelle.2967</title>
				<path d="M0 675.8 L122.97 675.8 L122.97 658.13 L0 658.13 L0 675.8 Z" class="st1"/>
			</g>
			<g id="shape2968-65" transform="translate(0,-17.6693)">
				<title>Tabelle.2968</title>
				<path d="M0 675.8 L122.97 675.8 L122.97 632.9 L0 632.9 L0 675.8 Z" class="st2"/>
			</g>
			<g id="shape2969-67" transform="translate(0,-44.573)">
				<title>Tabelle.2969</title>
				<desc>&#60;&#60;abstract&#62;&#62;</desc>
				<text x="4" y="672.8" class="st6">&#60;&#60;abstract&#62;&#62;</text>			</g>
			<g id="shape2970-69" transform="translate(114.467,-60.5766)">
				<title>Tabelle.2970</title>
				<desc>Parameter</desc>
			</g>
			<g id="shape2966-70">
				<text x="4" y="646.03" class="st3">PeromonUpdateRule</text>			</g>
		</g>
		<g id="shape2971-72" transform="translate(279.588,-268.662)">
			<title>Mitglied.2971</title>
			<rect x="0" y="663.803" width="117.302" height="12" class="st4"/>
			<rect x="0" y="663.803" width="117.302" height="12" class="st5"/>
		</g>
		<g id="group2972-75" transform="translate(137.855,-183.935)">
			<title>Klasse.2972</title>
			<desc>NextStepStrategy</desc>
			<g id="shape2973-76">
				<title>Tabelle.2973</title>
				<path d="M0 675.8 L122.97 675.8 L122.97 658.13 L0 658.13 L0 675.8 Z" class="st1"/>
			</g>
			<g id="shape2974-78" transform="translate(0,-17.6693)">
				<title>Tabelle.2974</title>
				<path d="M0 675.8 L122.97 675.8 L122.97 632.9 L0 632.9 L0 675.8 Z" class="st2"/>
			</g>
			<g id="shape2975-80" transform="translate(0,-44.573)">
				<title>Tabelle.2975</title>
				<desc>&#60;&#60;abstract&#62;&#62;</desc>
				<text x="4" y="672.8" class="st6">&#60;&#60;abstract&#62;&#62;</text>			</g>
			<g id="shape2976-82" transform="translate(114.467,-60.5766)">
				<title>Tabelle.2976</title>
				<desc>Parameter</desc>
			</g>
			<g id="shape2972-83">
				<text x="4" y="646.03" class="st3">NextStepStrategy</text>			</g>
		</g>
		<g id="shape2977-85" transform="translate(140.69,-186.769)">
			<title>Mitglied.2977</title>
			<rect x="0" y="663.803" width="117.302" height="12" class="st4"/>
			<rect x="0" y="663.803" width="117.302" height="12" class="st5"/>
		</g>
		<g id="group2978-88" transform="translate(137.855,-96.0608)">
			<title>Klasse.2978</title>
			<desc>CombinationRule</desc>
			<g id="shape2979-89">
				<title>Tabelle.2979</title>
				<path d="M0 675.8 L122.97 675.8 L122.97 658.13 L0 658.13 L0 675.8 Z" class="st1"/>
			</g>
			<g id="shape2980-91" transform="translate(0,-17.6693)">
				<title>Tabelle.2980</title>
				<path d="M0 675.8 L122.97 675.8 L122.97 632.9 L0 632.9 L0 675.8 Z" class="st2"/>
			</g>
			<g id="shape2981-93" transform="translate(0,-44.573)">
				<title>Tabelle.2981</title>
				<desc>&#60;&#60;abstract&#62;&#62;</desc>
				<text x="4" y="672.8" class="st6">&#60;&#60;abstract&#62;&#62;</text>			</g>
			<g id="shape2982-95" transform="translate(114.467,-60.5766)">
				<title>Tabelle.2982</title>
				<desc>Parameter</desc>
			</g>
			<g id="shape2978-96">
				<text x="4" y="646.03" class="st3">CombinationRule</text>			</g>
		</g>
		<g id="shape2983-98" transform="translate(140.69,-98.8955)">
			<title>Mitglied.2983</title>
			<rect x="0" y="663.803" width="117.302" height="12" class="st4"/>
			<rect x="0" y="663.803" width="117.302" height="12" class="st5"/>
		</g>
		<g id="group2984-101" transform="translate(275.336,-0.375)">
			<title>Klasse.2984</title>
			<desc>HeuristicRule</desc>
			<g id="shape2985-102">
				<title>Tabelle.2985</title>
				<path d="M0 675.8 L122.97 675.8 L122.97 658.13 L0 658.13 L0 675.8 Z" class="st1"/>
			</g>
			<g id="shape2986-104" transform="translate(0,-17.6693)">
				<title>Tabelle.2986</title>
				<path d="M0 675.8 L122.97 675.8 L122.97 632.9 L0 632.9 L0 675.8 Z" class="st2"/>
			</g>
			<g id="shape2987-106" transform="translate(0,-44.573)">
				<title>Tabelle.2987</title>
				<desc>&#60;&#60;abstract&#62;&#62;</desc>
				<text x="4" y="672.8" class="st6">&#60;&#60;abstract&#62;&#62;</text>			</g>
			<g id="shape2988-108" transform="translate(114.467,-60.5766)">
				<title>Tabelle.2988</title>
				<desc>Parameter</desc>
			</g>
			<g id="shape2984-109">
				<text x="4" y="646.03" class="st3">HeuristicRule</text>			</g>
		</g>
		<g id="shape2989-111" transform="translate(278.17,-3.20965)">
			<title>Mitglied.2989</title>
			<rect x="0" y="663.803" width="117.302" height="12" class="st4"/>
			<rect x="0" y="663.803" width="117.302" height="12" class="st5"/>
		</g>
		<g id="group2990-114" transform="translate(0.375,-96.0607)">
			<title>Klasse.2990</title>
			<desc>PerceptionRule</desc>
			<g id="shape2991-115">
				<title>Tabelle.2991</title>
				<path d="M0 675.8 L122.97 675.8 L122.97 658.13 L0 658.13 L0 675.8 Z" class="st1"/>
			</g>
			<g id="shape2992-117" transform="translate(0,-17.6693)">
				<title>Tabelle.2992</title>
				<path d="M0 675.8 L122.97 675.8 L122.97 632.9 L0 632.9 L0 675.8 Z" class="st2"/>
			</g>
			<g id="shape2993-119" transform="translate(0,-44.573)">
				<title>Tabelle.2993</title>
				<desc>&#60;&#60;abstract&#62;&#62;</desc>
				<text x="4" y="672.8" class="st6">&#60;&#60;abstract&#62;&#62;</text>			</g>
			<g id="shape2994-121" transform="translate(114.467,-60.5766)">
				<title>Tabelle.2994</title>
				<desc>Parameter</desc>
			</g>
			<g id="shape2990-122">
				<text x="4" y="646.03" class="st3">PerceptionRule</text>			</g>
		</g>
		<g id="shape2995-124" transform="translate(3.20965,-98.8954)">
			<title>Mitglied.2995</title>
			<rect x="0" y="663.803" width="117.302" height="12" class="st4"/>
			<rect x="0" y="663.803" width="117.302" height="12" class="st5"/>
		</g>
		<g id="group2996-127" transform="translate(192.254,-376.691)">
			<title>Gerichtete Assoziation.2996</title>
			<desc>&#60;benutzt&#62;</desc>
			<g id="shape2996-128">
				<path d="M7.09 675.8 L7.09 726.09" class="st7"/>
				<rect x="-11.5199" y="695.547" width="37.2129" height="10.7998" class="st9"/>
				<text x="-11.52" y="703.65" class="st10">&#60;benutzt&#62;</text>			</g>
		</g>
		<g id="group3001-136" transform="translate(260.827,-406.977)">
			<title>Gerichtete Assoziation.3001</title>
			<desc>&#60;benutzt&#62;</desc>
			<g id="shape3001-137">
				<path d="M0 675.8 L77.41 675.8 L77.41 756.38" class="st7"/>
				<rect x="58.8055" y="671.984" width="37.2129" height="10.7998" class="st9"/>
				<text x="58.81" y="680.08" class="st10">&#60;benutzt&#62;</text>			</g>
		</g>
		<g id="group3006-144" transform="translate(137.855,-406.977)">
			<title>Gerichtete Assoziation.3006</title>
			<desc>&#60;benutzt&#62;</desc>
			<g id="shape3006-145">
				<path d="M0 675.8 L-75.99 675.8 L-75.99 756.38" class="st7"/>
				<rect x="-94.6011" y="672.693" width="37.2129" height="10.7998" class="st9"/>
				<text x="-94.6" y="680.79" class="st10">&#60;benutzt&#62;</text>			</g>
		</g>
		<g id="group3011-152" transform="translate(192.254,-265.827)">
			<title>Gerichtete Assoziation.3011</title>
			<desc>&#60;benutzt&#62;</desc>
			<g id="shape3011-153">
				<path d="M7.09 675.8 L7.09 697.12" class="st7"/>
				<rect x="-11.5199" y="681.061" width="37.2129" height="10.7998" class="st9"/>
				<text x="-11.52" y="689.16" class="st10">&#60;benutzt&#62;</text>			</g>
		</g>
		<g id="group3016-160" transform="translate(192.254,-183.935)">
			<title>Gerichtete Assoziation.3016</title>
			<desc>&#60;benutzt&#62;</desc>
			<g id="shape3016-161">
				<path d="M7.09 675.8 L7.09 703.1" class="st7"/>
				<rect x="-11.5199" y="684.052" width="37.2129" height="10.7998" class="st9"/>
				<text x="-11.52" y="692.15" class="st10">&#60;benutzt&#62;</text>			</g>
		</g>
		<g id="group3021-168" transform="translate(260.827,-214.223)">
			<title>Gerichtete Assoziation.3021</title>
			<desc>&#60;benutzt&#62;</desc>
			<g id="shape3021-169">
				<path d="M0 675.8 L75.99 675.8 L75.99 733.39" class="st7"/>
				<rect x="48.1845" y="670.403" width="37.2129" height="10.7998" class="st9"/>
				<text x="48.18" y="678.5" class="st10">&#60;benutzt&#62;</text>			</g>
		</g>
		<g id="group3026-176" transform="translate(137.855,-214.223)">
			<title>Gerichtete Assoziation.3026</title>
			<desc>&#60;benutzt&#62;</desc>
			<g id="shape3026-177">
				<path d="M0 675.8 L-75.99 675.8 L-75.99 733.39" class="st7"/>
				<rect x="-85.3966" y="670.403" width="37.2129" height="10.7998" class="st9"/>
				<text x="-85.4" y="678.5" class="st10">&#60;benutzt&#62;</text>			</g>
		</g>
		<g id="group3031-184" transform="translate(359.499,-555.711)">
			<title>Gerichtete Assoziation.3031</title>
			<desc>koordiniert</desc>
			<g id="shape3031-185">
				<path d="M0 675.8 L-160.16 675.8 L-160.16 794.25" class="st7"/>
				<rect x="-159.772" y="670.403" width="40.9395" height="10.7998" class="st9"/>
				<text x="-159.77" y="678.5" class="st10">koordiniert</text>			</g>
		</g>
		<g id="group3036-192" transform="translate(413.898,-614.855)">
			<title>Gerichtete Assoziation.3036</title>
			<desc>startet</desc>
			<g id="shape3036-193">
				<path d="M7.09 675.8 L7.09 704.66" class="st7"/>
				<rect x="-5.15875" y="684.831" width="24.4907" height="10.7998" class="st9"/>
				<text x="-5.16" y="692.93" class="st10">startet</text>			</g>
		</g>
		<g id="group3041-200" transform="translate(523.265,-367.576)">
			<title>Klasse.3041</title>
			<desc>PeromonAssociation</desc>
			<g id="shape3042-201">
				<title>Tabelle.3042</title>
				<path d="M0 675.8 L122.97 675.8 L122.97 658.13 L0 658.13 L0 675.8 Z" class="st1"/>
			</g>
			<g id="shape3043-203" transform="translate(0,-17.6693)">
				<title>Tabelle.3043</title>
				<path d="M0 675.8 L122.97 675.8 L122.97 632.9 L0 632.9 L0 675.8 Z" class="st2"/>
			</g>
			<g id="shape3044-205" transform="translate(0,-44.573)">
				<title>Tabelle.3044</title>
				<desc>&#60;&#60;abstract&#62;&#62;</desc>
				<text x="4" y="672.8" class="st6">&#60;&#60;abstract&#62;&#62;</text>			</g>
			<g id="shape3045-207" transform="translate(114.467,-60.5766)">
				<title>Tabelle.3045</title>
				<desc>Parameter</desc>
			</g>
			<g id="shape3041-208">
				<text x="4" y="646.03" class="st3">PeromonAssociation</text>			</g>
		</g>
		<g id="shape3046-210" transform="translate(526.099,-370.41)">
			<title>Mitglied.3046</title>
			<rect x="0" y="663.803" width="117.302" height="12" class="st4"/>
			<rect x="0" y="663.803" width="117.302" height="12" class="st5"/>
		</g>
		<g id="group3047-213" transform="translate(482.47,-555.711)">
			<title>Gerichtete Assoziation.3047</title>
			<desc>koordiniert</desc>
			<g id="shape3047-214">
				<path d="M0 675.8 L102.28 675.8 L102.28 803.36" class="st7"/>
				<rect x="81.8106" y="683.043" width="40.9395" height="10.7998" class="st11"/>
				<text x="81.81" y="691.14" class="st10">koordiniert</text>			</g>
		</g>
		<g id="group3052-221" transform="translate(442.915,-263.647)">
			<title>Klasse.3052</title>
			<desc>EvaporationRule</desc>
			<g id="shape3053-222">
				<title>Tabelle.3053</title>
				<path d="M0 675.8 L122.97 675.8 L122.97 658.13 L0 658.13 L0 675.8 Z" class="st1"/>
			</g>
			<g id="shape3054-224" transform="translate(0,-17.6693)">
				<title>Tabelle.3054</title>
				<path d="M0 675.8 L122.97 675.8 L122.97 632.9 L0 632.9 L0 675.8 Z" class="st2"/>
			</g>
			<g id="shape3055-226" transform="translate(0,-44.573)">
				<title>Tabelle.3055</title>
				<desc>&#60;&#60;abstract&#62;&#62;</desc>
				<text x="4" y="672.8" class="st6">&#60;&#60;abstract&#62;&#62;</text>			</g>
			<g id="shape3056-228" transform="translate(114.467,-60.5766)">
				<title>Tabelle.3056</title>
				<desc>Parameter</desc>
			</g>
			<g id="shape3052-229">
				<text x="4" y="646.03" class="st3">EvaporationRule</text>			</g>
		</g>
		<g id="shape3057-231" transform="translate(445.75,-266.481)">
			<title>Mitglied.3057</title>
			<rect x="0" y="663.803" width="117.302" height="12" class="st4"/>
			<rect x="0" y="663.803" width="117.302" height="12" class="st5"/>
		</g>
		<g id="group3058-234" transform="translate(523.265,-397.864)">
			<title>Gerichtete Assoziation.3058</title>
			<desc>benutzt</desc>
			<g id="shape3058-235">
				<path d="M0 675.8 L-18.86 675.8 L-18.86 749.44" class="st7"/>
				<rect x="-32.9875" y="697.792" width="28.248" height="10.7998" class="st9"/>
				<text x="-32.99" y="705.89" class="st10">benutzt</text>			</g>
		</g>
		<g id="group3063-242" transform="translate(605.031,-263.647)">
			<title>Klasse.3063</title>
			<desc>InitRule</desc>
			<g id="shape3064-243">
				<title>Tabelle.3064</title>
				<path d="M0 675.8 L122.97 675.8 L122.97 658.13 L0 658.13 L0 675.8 Z" class="st1"/>
			</g>
			<g id="shape3065-245" transform="translate(0,-17.6693)">
				<title>Tabelle.3065</title>
				<path d="M0 675.8 L122.97 675.8 L122.97 632.9 L0 632.9 L0 675.8 Z" class="st2"/>
			</g>
			<g id="shape3066-247" transform="translate(0,-44.573)">
				<title>Tabelle.3066</title>
				<desc>&#60;&#60;abstract&#62;&#62;</desc>
				<text x="4" y="672.8" class="st6">&#60;&#60;abstract&#62;&#62;</text>			</g>
			<g id="shape3067-249" transform="translate(114.467,-60.5766)">
				<title>Tabelle.3067</title>
				<desc>Parameter</desc>
			</g>
			<g id="shape3063-250">
				<text x="4" y="646.03" class="st3">InitRule</text>			</g>
		</g>
		<g id="shape3068-252" transform="translate(607.866,-266.481)">
			<title>Mitglied.3068</title>
			<rect x="0" y="663.803" width="117.302" height="12" class="st4"/>
			<rect x="0" y="663.803" width="117.302" height="12" class="st5"/>
		</g>
		<g id="group3069-255" transform="translate(646.236,-397.864)">
			<title>Gerichtete Assoziation.3069</title>
			<desc>benutzt</desc>
			<g id="shape3069-256">
				<path d="M0 675.8 L20.28 675.8 L20.28 749.44" class="st7"/>
				<rect x="6.15681" y="697.083" width="28.248" height="10.7998" class="st11"/>
				<text x="6.16" y="705.18" class="st10">benutzt</text>			</g>
		</g>
		<g id="group3074-263" transform="translate(359.499,-440.384)">
			<title>Klasse.3074</title>
			<desc>TerminationRule</desc>
			<g id="shape3075-264">
				<title>Tabelle.3075</title>
				<path d="M0 675.8 L122.97 675.8 L122.97 658.13 L0 658.13 L0 675.8 Z" class="st1"/>
			</g>
			<g id="shape3076-266" transform="translate(0,-17.6693)">
				<title>Tabelle.3076</title>
				<path d="M0 675.8 L122.97 675.8 L122.97 632.9 L0 632.9 L0 675.8 Z" class="st2"/>
			</g>
			<g id="shape3077-268" transform="translate(0,-44.573)">
				<title>Tabelle.3077</title>
				<desc>&#60;&#60;abstract&#62;&#62;</desc>
				<text x="4" y="672.8" class="st6">&#60;&#60;abstract&#62;&#62;</text>			</g>
			<g id="shape3078-270" transform="translate(114.467,-60.5766)">
				<title>Tabelle.3078</title>
				<desc>Parameter</desc>
			</g>
			<g id="shape3074-271">
				<text x="4" y="646.03" class="st3">TerminationRule</text>			</g>
		</g>
		<g id="shape3079-273" transform="translate(362.333,-443.218)">
			<title>Mitglied.3079</title>
			<rect x="0" y="663.803" width="117.302" height="12" class="st4"/>
			<rect x="0" y="663.803" width="117.302" height="12" class="st5"/>
		</g>
		<g id="group3080-276" transform="translate(413.898,-525.423)">
			<title>Gerichtete Assoziation.3080</title>
			<desc>benutzt</desc>
			<g id="shape3080-277">
				<path d="M7.09 675.8 L7.09 700.27" class="st7"/>
				<rect x="-7.03741" y="682.635" width="28.248" height="10.7998" class="st9"/>
				<text x="-7.04" y="690.73" class="st10">benutzt</text>			</g>
		</g>
		<g id="group3085-284" transform="translate(329.735,-96.0627)">
			<title>Aggregation.3085</title>
			<g id="shape3085-285">
				<path d="M7.09 690.16 L7.09 690.52 L7.09 710.91" class="st12"/>
			</g>
		</g>
		<g id="group3090-291" transform="translate(275.336,-96.0627)">
			<title>Klasse.2940</title>
			<desc>HeuristicsSet</desc>
			<g id="shape3091-292">
				<title>Tabelle.3091</title>
				<path d="M0 675.8 L122.97 675.8 L122.97 658.13 L0 658.13 L0 675.8 Z" class="st1"/>
			</g>
			<g id="shape3092-294" transform="translate(0,-17.6693)">
				<title>Tabelle.3092</title>
				<path d="M0 675.8 L122.97 675.8 L122.97 632.9 L0 632.9 L0 675.8 Z" class="st2"/>
			</g>
			<g id="shape3094-296" transform="translate(114.467,-60.573)">
				<title>Tabelle.3094</title>
				<desc>Parameter</desc>
			</g>
			<g id="shape3090-297">
				<text x="4" y="646.03" class="st3">HeuristicsSet</text>			</g>
		</g>
		<g id="shape3095-299" transform="translate(278.17,-98.8973)">
			<title>Mitglied.2945</title>
			<rect x="0" y="663.803" width="117.302" height="12" class="st4"/>
			<rect x="0" y="663.803" width="117.302" height="12" class="st5"/>
		</g>
	</g>
</svg>
