<?xml version="1.0" encoding="UTF-8" standalone="no"?>
<!DOCTYPE svg PUBLIC "-//W3C//DTD SVG 1.1//EN" "http://www.w3.org/Graphics/SVG/1.1/DTD/svg11.dtd">
<!-- Generiert durch Microsoft Visio, SVG Export Masterprocess-a.svg Zeichenblatt-1 -->
<svg xmlns="http://www.w3.org/2000/svg" xmlns:xlink="http://www.w3.org/1999/xlink" xmlns:ev="http://www.w3.org/2001/xml-events"
		width="6.82876in" height="2.93715in" viewBox="0 0 491.671 211.475" xml:space="preserve" color-interpolation-filters="sRGB"
		class="st13">
	<style type="text/css">
	<![CDATA[
		.st1 {fill:#f2f2f2;stroke:#000000;stroke-linecap:round;stroke-linejoin:round;stroke-width:0.75}
		.st2 {fill:#ffffff;stroke:#000000;stroke-linecap:round;stroke-linejoin:round;stroke-width:0.75}
		.st3 {fill:#000000;font-family:Calibri;font-size:1.00001em}
		.st4 {fill:#ffffff;fill-opacity:0}
		.st5 {stroke:#000000;stroke-linecap:round;stroke-linejoin:round;stroke-width:0.75;visibility:hidden}
		.st6 {fill:#000000;font-family:Calibri;font-size:0.833336em}
		.st7 {marker-end:url(#mrkr12-32);stroke:#000000;stroke-linecap:round;stroke-linejoin:round;stroke-width:0.75}
		.st8 {fill:#000000;fill-opacity:1;stroke:#000000;stroke-opacity:1;stroke-width:0.22935779816514}
		.st9 {fill:#ffffff;stroke:none;stroke-linecap:butt;stroke-width:7.2}
		.st10 {fill:#000000;font-family:Calibri;font-size:0.75em}
		.st11 {marker-start:url(#mrkr22-80);stroke:#000000;stroke-linecap:round;stroke-linejoin:round;stroke-width:0.75}
		.st12 {fill:#000000;font-family:Calibri;font-size:0.666664em}
		.st13 {fill:none;fill-rule:evenodd;font-size:12px;overflow:visible;stroke-linecap:square;stroke-miterlimit:3}
	]]>
	</style>

	<defs id="Markers">
		<g id="lend12">
			<path d="M 3 1 L 0 0 L 3 -1 " style="stroke-linecap:round;stroke-linejoin:round;fill:none"/>
		</g>
		<marker id="mrkr12-32" class="st8" orient="auto" markerUnits="strokeWidth" overflow="visible">
			<use xlink:href="#lend12" transform="scale(-4.36,-4.36) "/>
		</marker>
		<g id="lend22">
			<path d="M 0 0 L 2.25 -1.125 L 4.5 0 L 2.25 1.125 L 0 0 " style="stroke-linecap:round;stroke-linejoin:round;fill:none"/>
		</g>
		<marker id="mrkr22-80" class="st8" refX="19.14" orient="auto" markerUnits="strokeWidth" overflow="visible">
			<use xlink:href="#lend22" transform="scale(4.36) "/>
		</marker>
	</defs>
	<g>
		<title>Zeichenblatt-1</title>
		<g id="group1245-1" transform="translate(0.375,-0.375)">
			<title>Tabelle.1245</title>
			<g id="group1184-2" transform="translate(0,-147.73)">
				<title>Klasse.2936</title>
				<desc>ACOAlgorithm</desc>
				<g id="shape1185-3">
					<title>Tabelle.1185</title>
					<path d="M0 211.48 L122.97 211.48 L122.97 193.81 L0 193.81 L0 211.48 Z" class="st1"/>
				</g>
				<g id="shape1186-5" transform="translate(0,-17.6693)">
					<title>Tabelle.1186</title>
					<path d="M0 211.48 L122.97 211.48 L122.97 168.57 L0 168.57 L0 211.48 Z" class="st2"/>
				</g>
				<g id="shape1188-7" transform="translate(114.467,-60.573)">
					<title>Tabelle.1188</title>
					<desc>Parameter</desc>
				</g>
				<g id="shape1184-8">
					<text x="4" y="181.7" class="st3">ACOAlgorithm</text>				</g>
			</g>
			<g id="shape1189-10" transform="translate(2.83465,-150.565)">
				<title>Mitglied.2941</title>
				<rect x="0" y="199.475" width="117.302" height="12" class="st4"/>
				<rect x="0" y="199.475" width="117.302" height="12" class="st5"/>
			</g>
			<g id="group1196-13" transform="translate(168.661,-147.689)">
				<title>Klasse.2948</title>
				<desc>MasterProcess</desc>
				<g id="shape1197-14">
					<title>Tabelle.1197</title>
					<path d="M0 211.48 L122.97 211.48 L122.97 193.81 L0 193.81 L0 211.48 Z" class="st1"/>
				</g>
				<g id="shape1198-16" transform="translate(0,-17.6693)">
					<title>Tabelle.1198</title>
					<path d="M0 211.48 L122.97 211.48 L122.97 168.57 L0 168.57 L0 211.48 Z" class="st2"/>
				</g>
				<g id="shape1199-18" transform="translate(0,-44.573)">
					<title>Tabelle.1199</title>
					<desc>&#60;&#60;abstract&#62;&#62;</desc>
					<text x="4" y="208.47" class="st6">&#60;&#60;abstract&#62;&#62;</text>				</g>
				<g id="shape1200-20" transform="translate(114.467,-60.5766)">
					<title>Tabelle.1200</title>
					<desc>Parameter</desc>
				</g>
				<g id="shape1196-21">
					<text x="4" y="181.7" class="st3">MasterProcess</text>				</g>
			</g>
			<g id="shape1201-23" transform="translate(171.496,-150.523)">
				<title>Mitglied.2953</title>
				<rect x="0" y="199.475" width="117.302" height="12" class="st4"/>
				<rect x="0" y="199.475" width="117.302" height="12" class="st5"/>
			</g>
			<g id="group1207-26" transform="translate(122.971,-185.083)">
				<title>Gerichtete Assoziation.3036</title>
				<desc>startet</desc>
				<g id="shape1207-27">
					<path d="M0 218.54 L45.69 218.58" class="st7"/>
					<rect x="10.5996" y="213.162" width="24.4907" height="10.7998" class="st9"/>
					<text x="10.6" y="221.26" class="st10">startet</text>				</g>
			</g>
			<g id="group1212-35" transform="translate(367.087,-72.4271)">
				<title>Klasse.3041</title>
				<desc>PeromonAssociation</desc>
				<g id="shape1213-36">
					<title>Tabelle.1213</title>
					<path d="M0 211.48 L122.97 211.48 L122.97 193.81 L0 193.81 L0 211.48 Z" class="st1"/>
				</g>
				<g id="shape1214-38" transform="translate(0,-17.6693)">
					<title>Tabelle.1214</title>
					<path d="M0 211.48 L122.97 211.48 L122.97 168.57 L0 168.57 L0 211.48 Z" class="st2"/>
				</g>
				<g id="shape1215-40" transform="translate(0,-44.573)">
					<title>Tabelle.1215</title>
					<desc>&#60;&#60;abstract&#62;&#62;</desc>
					<text x="4" y="208.47" class="st6">&#60;&#60;abstract&#62;&#62;</text>				</g>
				<g id="shape1216-42" transform="translate(114.467,-60.5766)">
					<title>Tabelle.1216</title>
					<desc>Parameter</desc>
				</g>
				<g id="shape1212-43">
					<text x="4" y="181.7" class="st3">PeromonAssociation</text>				</g>
			</g>
			<g id="group1218-45" transform="translate(230.147,-147.689)">
				<title>Gerichtete Assoziation.3047</title>
				<desc>benutzt</desc>
				<g id="shape1218-46">
					<path d="M0 211.48 L0 328.88 L136.94 328.88" class="st7"/>
					<rect x="-4.35454" y="323.476" width="28.248" height="10.7998" class="st9"/>
					<text x="-4.35" y="331.58" class="st10">benutzt</text>				</g>
			</g>
			<g id="group1223-53" transform="translate(367.087,2.84217E-14)">
				<title>Klasse.3074</title>
				<desc>TerminationRule</desc>
				<g id="shape1224-54">
					<title>Tabelle.1224</title>
					<path d="M0 211.48 L122.97 211.48 L122.97 193.81 L0 193.81 L0 211.48 Z" class="st1"/>
				</g>
				<g id="shape1225-56" transform="translate(0,-17.6693)">
					<title>Tabelle.1225</title>
					<path d="M0 211.48 L122.97 211.48 L122.97 168.57 L0 168.57 L0 211.48 Z" class="st2"/>
				</g>
				<g id="shape1226-58" transform="translate(0,-44.573)">
					<title>Tabelle.1226</title>
					<desc>&#60;&#60;abstract&#62;&#62;</desc>
					<text x="4" y="208.47" class="st6">&#60;&#60;abstract&#62;&#62;</text>				</g>
				<g id="shape1227-60" transform="translate(114.467,-60.5766)">
					<title>Tabelle.1227</title>
					<desc>Parameter</desc>
				</g>
				<g id="shape1223-61">
					<text x="4" y="181.7" class="st3">TerminationRule</text>				</g>
			</g>
			<g id="shape1228-63" transform="translate(369.921,-2.83465)">
				<title>Mitglied.3079</title>
				<rect x="0" y="199.475" width="117.302" height="12" class="st4"/>
				<rect x="0" y="199.475" width="117.302" height="12" class="st5"/>
			</g>
			<g id="group1229-66" transform="translate(230.147,-147.689)">
				<title>Gerichtete Assoziation.3080</title>
				<desc>koordiniert</desc>
				<g id="shape1229-67">
					<path d="M0 211.48 L0 257 L136.94 257" class="st7"/>
					<rect x="25.2356" y="251.604" width="40.9395" height="10.7998" class="st9"/>
					<text x="25.24" y="259.7" class="st10">koordiniert</text>				</g>
			</g>
			<g id="group1234-74" transform="translate(291.633,-170.891)">
				<title>Aggregation.1234</title>
				<desc>koordiniert</desc>
				<g id="shape1234-75">
					<path d="M14.35 204.39 L14.71 204.39 L76.32 204.39" class="st11"/>
					<rect x="19.9634" y="199.589" width="36.3903" height="9.59985" class="st9"/>
					<text x="19.96" y="206.79" class="st12">koordiniert</text>				</g>
			</g>
			<g id="group1239-83" transform="translate(367.95,-147.689)">
				<title>Klasse.1239</title>
				<desc>Ant</desc>
				<g id="shape1240-84">
					<title>Tabelle.1240</title>
					<path d="M0 211.48 L122.97 211.48 L122.97 193.81 L0 193.81 L0 211.48 Z" class="st1"/>
				</g>
				<g id="shape1241-86" transform="translate(0,-17.6693)">
					<title>Tabelle.1241</title>
					<path d="M0 211.48 L122.97 211.48 L122.97 168.57 L0 168.57 L0 211.48 Z" class="st2"/>
				</g>
				<g id="shape1242-88" transform="translate(0,-44.573)">
					<title>Tabelle.1242</title>
					<desc>&#60;&#60;abstract&#62;&#62;</desc>
					<text x="4" y="208.47" class="st6">&#60;&#60;abstract&#62;&#62;</text>				</g>
				<g id="shape1243-90" transform="translate(114.467,-60.5766)">
					<title>Tabelle.1243</title>
					<desc>Parameter</desc>
				</g>
				<g id="shape1239-91">
					<text x="4" y="181.7" class="st3">Ant</text>				</g>
			</g>
			<g id="shape1244-93" transform="translate(370.23,-153.358)">
				<title>Mitglied.1244</title>
				<rect x="0" y="199.475" width="117.302" height="12" class="st4"/>
				<rect x="0" y="199.475" width="117.302" height="12" class="st5"/>
			</g>
		</g>
	</g>
</svg>
