<?xml version="1.0" encoding="UTF-8" standalone="no"?>
<!DOCTYPE svg PUBLIC "-//W3C//DTD SVG 1.1//EN" "http://www.w3.org/Graphics/SVG/1.1/DTD/svg11.dtd">
<!-- Generiert durch Microsoft Visio, SVG Export PheromonEvaporation.svg Zeichenblatt-1 -->
<svg xmlns="http://www.w3.org/2000/svg" xmlns:xlink="http://www.w3.org/1999/xlink" xmlns:ev="http://www.w3.org/2001/xml-events"
		width="7.09758in" height="2.82861in" viewBox="0 0 511.026 203.66" xml:space="preserve" color-interpolation-filters="sRGB"
		class="st14">
	<style type="text/css">
	<![CDATA[
		.st1 {fill:#f2f2f2;stroke:#000000;stroke-linecap:round;stroke-linejoin:round;stroke-width:0.75}
		.st2 {fill:#ffffff;stroke:#000000;stroke-linecap:round;stroke-linejoin:round;stroke-width:0.75}
		.st3 {fill:#000000;font-family:Calibri;font-size:0.833336em}
		.st4 {fill:#000000;font-family:Calibri;font-size:1.00001em}
		.st5 {fill:#ffffff;fill-opacity:0}
		.st6 {stroke:#000000;stroke-linecap:round;stroke-linejoin:round;stroke-width:0.75;visibility:hidden}
		.st7 {fill:#000000;font-family:Courier New;font-size:0.75em}
		.st8 {marker-end:url(#mrkr12-34);stroke:#000000;stroke-linecap:round;stroke-linejoin:round;stroke-width:0.75}
		.st9 {fill:#000000;fill-opacity:1;stroke:#000000;stroke-opacity:1;stroke-width:0.22935779816514}
		.st10 {fill:#ffffff;stroke:none;stroke-linecap:butt;stroke-width:7.2}
		.st11 {fill:#000000;font-family:Calibri;font-size:0.75em}
		.st12 {fill:#f2f2f2;stroke:#000000;stroke-linecap:round;stroke-linejoin:round;stroke-width:1.5}
		.st13 {fill:#ffffff;stroke:#000000;stroke-linecap:round;stroke-linejoin:round;stroke-width:1.5}
		.st14 {fill:none;fill-rule:evenodd;font-size:12px;overflow:visible;stroke-linecap:square;stroke-miterlimit:3}
	]]>
	</style>

	<defs id="Markers">
		<g id="lend12">
			<path d="M 3 1 L 0 0 L 3 -1 " style="stroke-linecap:round;stroke-linejoin:round;fill:none"/>
		</g>
		<marker id="mrkr12-34" class="st9" orient="auto" markerUnits="strokeWidth" overflow="visible">
			<use xlink:href="#lend12" transform="scale(-4.36,-4.36) "/>
		</marker>
	</defs>
	<g>
		<title>Zeichenblatt-1</title>
		<g id="group1281-1" transform="translate(0.375,-136.671)">
			<title>Klasse.1281</title>
			<desc>MasterProcess</desc>
			<g id="shape1282-2">
				<title>Tabelle.1282</title>
				<path d="M0 203.66 L122.97 203.66 L122.97 185.99 L0 185.99 L0 203.66 Z" class="st1"/>
			</g>
			<g id="shape1283-4" transform="translate(0,-17.6693)">
				<title>Tabelle.1283</title>
				<path d="M0 203.66 L122.97 203.66 L122.97 160.75 L0 160.75 L0 203.66 Z" class="st2"/>
			</g>
			<g id="shape1284-6" transform="translate(0,-44.573)">
				<title>Tabelle.1284</title>
				<desc>&#60;&#60;abstract&#62;&#62;</desc>
				<text x="4" y="200.66" class="st3">&#60;&#60;abstract&#62;&#62;</text>			</g>
			<g id="shape1285-8" transform="translate(114.467,-60.5766)">
				<title>Tabelle.1285</title>
				<desc>Parameter</desc>
			</g>
			<g id="shape1281-9">
				<text x="4" y="173.89" class="st4">MasterProcess</text>			</g>
		</g>
		<g id="shape1286-11" transform="translate(3.20965,-139.505)">
			<title>Mitglied.2953</title>
			<rect x="0" y="191.66" width="117.302" height="12" class="st5"/>
			<rect x="0" y="191.66" width="117.302" height="12" class="st6"/>
		</g>
		<g id="group1287-14" transform="translate(189.42,-130.701)">
			<title>Klasse.3041</title>
			<desc>PeromonAssociation</desc>
			<g id="shape1288-15">
				<title>Tabelle.1288</title>
				<path d="M0 203.66 L138.9 203.66 L138.9 173.98 L0 173.98 L0 203.66 Z" class="st1"/>
			</g>
			<g id="shape1289-17" transform="translate(0,-29.6766)">
				<title>Tabelle.1289</title>
				<path d="M0 203.66 L138.9 203.66 L138.9 160.75 L0 160.75 L0 203.66 Z" class="st2"/>
			</g>
			<g id="shape1290-19" transform="translate(0,-56.5803)">
				<title>Tabelle.1290</title>
				<desc>&#60;&#60;abstract&#62;&#62;</desc>
				<text x="4" y="200.66" class="st3">&#60;&#60;abstract&#62;&#62;</text>			</g>
			<g id="shape1291-21" transform="translate(130.394,-72.5839)">
				<title>Tabelle.1291</title>
				<desc>Parameter</desc>
			</g>
			<g id="shape1287-22">
				<text x="4" y="161.88" class="st4">PeromonAssociation</text>			</g>
		</g>
		<g id="shape1292-24" transform="translate(192.254,-145.539)">
			<title>Mitglied.3046</title>
			<desc>+ evaporatePheromones()</desc>
			<rect x="0" y="191.656" width="133.228" height="12.0036" class="st5"/>
			<rect x="0" y="191.656" width="133.228" height="12.0036" class="st6"/>
			<text x="8.5" y="200.66" class="st7">+ evaporatePheromones()</text>		</g>
		<g id="group1293-28" transform="translate(123.346,-159.889)">
			<title>Gerichtete Assoziation.3047</title>
			<desc>koordiniert</desc>
			<g id="shape1293-29">
				<path d="M0 196.59 L66.07 196.56" class="st8"/>
				<rect x="12.5669" y="191.173" width="40.9395" height="10.7998" class="st10"/>
				<text x="12.57" y="199.27" class="st11">koordiniert</text>			</g>
		</g>
		<g id="group1298-37" transform="translate(384.47,-63.859)">
			<title>Klasse.3052</title>
			<desc>PheromoneEvaporation</desc>
			<g id="shape1299-38">
				<title>Tabelle.1299</title>
				<path d="M0 203.66 L125.81 203.66 L125.81 185.99 L0 185.99 L0 203.66 Z" class="st12"/>
			</g>
			<g id="shape1300-40" transform="translate(0,-17.6729)">
				<title>Tabelle.1300</title>
				<path d="M0 203.66 L125.81 203.66 L125.81 160.75 L0 160.75 L0 203.66 Z" class="st13"/>
			</g>
			<g id="shape1301-42" transform="translate(0,-44.5766)">
				<title>Tabelle.1301</title>
				<desc>&#60;&#60;abstract&#62;&#62;</desc>
				<text x="4" y="200.66" class="st3">&#60;&#60;abstract&#62;&#62;</text>			</g>
			<g id="shape1302-44" transform="translate(117.302,-60.5803)">
				<title>Tabelle.1302</title>
				<desc>Parameter</desc>
			</g>
			<g id="shape1298-45">
				<text x="4" y="173.89" class="st4">PheromoneEvaporation</text>			</g>
		</g>
		<g id="shape1303-47" transform="translate(387.304,-66.6937)">
			<title>Mitglied.3057</title>
			<desc>+ evaporate()</desc>
			<rect x="0" y="191.656" width="120.137" height="12.0036" class="st5"/>
			<rect x="0" y="191.656" width="120.137" height="12.0036" class="st6"/>
			<text x="8.5" y="200.66" class="st7">+ evaporate()</text>		</g>
		<g id="group1304-51" transform="translate(328.317,-166.993)">
			<title>Gerichtete Assoziation.3058</title>
			<desc>benutzt</desc>
			<g id="shape1304-52">
				<path d="M0 203.66 L28.91 203.66 L28.91 276.5 L56.15 276.5" class="st8"/>
				<rect x="14.7894" y="233.845" width="28.248" height="10.7998" class="st10"/>
				<text x="14.79" y="241.94" class="st11">benutzt</text>			</g>
		</g>
		<g id="group1309-59" transform="translate(384.47,-137.035)">
			<title>Klasse.3063</title>
			<desc>PheromoneInit</desc>
			<g id="shape1310-60">
				<title>Tabelle.1310</title>
				<path d="M0 203.66 L125.81 203.66 L125.81 185.99 L0 185.99 L0 203.66 Z" class="st1"/>
			</g>
			<g id="shape1311-62" transform="translate(0,-17.6729)">
				<title>Tabelle.1311</title>
				<path d="M0 203.66 L125.81 203.66 L125.81 160.75 L0 160.75 L0 203.66 Z" class="st2"/>
			</g>
			<g id="shape1312-64" transform="translate(0,-44.5766)">
				<title>Tabelle.1312</title>
				<desc>&#60;&#60;abstract&#62;&#62;</desc>
				<text x="4" y="200.66" class="st3">&#60;&#60;abstract&#62;&#62;</text>			</g>
			<g id="shape1313-66" transform="translate(117.302,-60.5803)">
				<title>Tabelle.1313</title>
				<desc>Parameter</desc>
			</g>
			<g id="shape1309-67">
				<text x="4" y="173.89" class="st4">PheromoneInit</text>			</g>
		</g>
		<g id="shape1314-69" transform="translate(387.304,-139.87)">
			<title>Mitglied.3068</title>
			<desc>+ initValue()</desc>
			<rect x="0" y="191.656" width="120.137" height="12.0036" class="st5"/>
			<rect x="0" y="191.656" width="120.137" height="12.0036" class="st6"/>
			<text x="8.5" y="200.66" class="st7">+ initValue()</text>		</g>
		<g id="group1315-73" transform="translate(328.317,-160.073)">
			<title>Gerichtete Assoziation.3069</title>
			<desc>benutzt</desc>
			<g id="shape1315-74">
				<path d="M0 196.74 L56.15 196.41" class="st8"/>
				<rect x="13.952" y="191.173" width="28.248" height="10.7998" class="st10"/>
				<text x="13.95" y="199.27" class="st11">benutzt</text>			</g>
		</g>
		<g id="shape1320-81" transform="translate(192.254,-133.536)">
			<title>Mitglied.1320</title>
			<desc>+ initPheromones()</desc>
			<rect x="0" y="191.656" width="133.228" height="12.0036" class="st5"/>
			<rect x="0" y="191.656" width="133.228" height="12.0036" class="st6"/>
			<text x="8.5" y="200.66" class="st7">+ initPheromones()</text>		</g>
		<g id="group1321-85" transform="translate(197.383,-0.375)">
			<title>Klasse.1321</title>
			<desc>Problem</desc>
			<g id="shape1322-86">
				<title>Tabelle.1322</title>
				<path d="M0 203.66 L122.97 203.66 L122.97 185.99 L0 185.99 L0 203.66 Z" class="st1"/>
			</g>
			<g id="shape1323-88" transform="translate(0,-17.6693)">
				<title>Tabelle.1323</title>
				<path d="M0 203.66 L122.97 203.66 L122.97 160.75 L0 160.75 L0 203.66 Z" class="st2"/>
			</g>
			<g id="shape1324-90" transform="translate(0,-44.573)">
				<title>Tabelle.1324</title>
				<desc>&#60;&#60;abstract&#62;&#62;</desc>
				<text x="4" y="200.66" class="st3">&#60;&#60;abstract&#62;&#62;</text>			</g>
			<g id="shape1325-92" transform="translate(114.467,-60.5766)">
				<title>Tabelle.1325</title>
				<desc>Parameter</desc>
			</g>
			<g id="shape1321-93">
				<text x="4" y="173.89" class="st4">Problem</text>			</g>
		</g>
		<g id="shape1326-95" transform="translate(200.218,-3.20965)">
			<title>Mitglied.1326</title>
			<rect x="0" y="191.66" width="117.302" height="12" class="st5"/>
			<rect x="0" y="191.66" width="117.302" height="12" class="st6"/>
		</g>
		<g id="group1327-98" transform="translate(251.782,-130.701)">
			<title>Gerichtete Assoziation.1327</title>
			<desc>Assoziiert mit</desc>
			<g id="shape1327-99">
				<path d="M7.09 203.66 L7.09 273.41" class="st8"/>
				<rect x="-17.7205" y="233.135" width="49.6143" height="10.7998" class="st10"/>
				<text x="-17.72" y="241.23" class="st11">Assoziiert mit</text>			</g>
		</g>
	</g>
</svg>
